<svg width="48" height="51" viewBox="0 0 48 51" fill="none" xmlns="http://www.w3.org/2000/svg">
<path d="M5.56555 40.6516L6.78826 39.4289L4.88791 39.4142L4.88791 38.5892H7.62795L8.2172 38L7.62795 37.4107L4.88791 37.4107L4.88791 36.5858L6.78826 36.571L5.56555 35.3483L6.15481 34.7591L7.37751 35.9818L7.39224 34.0814L8.2172 34.0814L8.2172 36.8215L8.80646 37.4107L9.39571 36.8215L9.39571 34.0814L10.2207 34.0814L10.2354 35.9818L11.4581 34.7591L12.0474 35.3483L10.8247 36.571L12.725 36.5858L12.725 37.4107L9.98497 37.4107L9.39571 38L9.98497 38.5892H12.725L12.725 39.4142L10.8247 39.4289L12.0474 40.6516L11.4581 41.2409L10.2354 40.0182L10.2207 41.9185H9.39571V39.1785L8.80646 38.5892L8.2172 39.1785V41.9185H7.39224L7.37751 40.0182L6.15481 41.2409L5.56555 40.6516V40.6516" fill="#BFDBFE"/>
<path d="M19.849 43.8333V41.4125L17.9532 43.2791L17.1365 42.4625L19.849 39.75V38.5833H18.6823L15.9698 41.2958L15.1532 40.4791L17.0198 38.5833H14.599V37.4166H17.0198L15.1532 35.5208L15.9698 34.7041L18.6823 37.4166H19.849V36.25L17.1365 33.5375L17.9532 32.7208L19.849 34.5875V32.1666H21.0157V34.5875L22.9115 32.7208L23.7282 33.5375L21.0157 36.25V37.4166H22.1823L24.8948 34.7041L25.7115 35.5208L23.8448 37.4166H26.2657V38.5833H23.8448L25.7115 40.4791L24.8948 41.2958L22.1823 38.5833H21.0157V39.75L23.7282 42.4625L22.9115 43.2791L21.0157 41.4125V43.8333H19.849V43.8333" fill="#93C5FD"/>
<path d="M32.7263 42.1614L32.3668 40.47L31.3194 42.0557L30.6275 41.6064L32.1199 39.3084L31.9466 38.4933L31.1315 38.6666L29.6392 40.9646L28.9473 40.5153L29.9699 38.9135L28.2786 39.273L28.1053 38.4578L29.7967 38.0983L28.2109 37.051L28.6602 36.3591L30.9582 37.8514L31.7733 37.6782L31.6001 36.8631L29.3021 35.3707L29.7514 34.6789L31.3532 35.7015L30.9937 34.0101L31.8088 33.8369L32.1683 35.5282L33.2157 33.9425L33.9075 34.3918L32.4152 36.6898L32.5885 37.5049L33.4036 37.3317L34.8959 35.0337L35.5878 35.483L34.5651 37.0848L36.2565 36.7252L36.4298 37.5404L34.7384 37.8999L36.3241 38.9472L35.8748 39.6391L33.5769 38.1468L32.7617 38.32L32.935 39.1352L35.233 40.6275L34.7837 41.3194L33.1819 40.2967L33.5414 41.9881L32.7263 42.1614V42.1614" fill="#BFDBFE"/>
<g filter="url(#filter0_d_6_182)">
<rect x="6" y="9" width="36" height="20" rx="10" fill="url(#paint0_linear_6_182)" shape-rendering="crispEdges"/>
<rect x="14" y="1" width="16" height="16" rx="8" fill="#F9FAFB"/>
</g>
<defs>
<filter id="filter0_d_6_182" x="4" y="0" width="40" height="32" filterUnits="userSpaceOnUse" color-interpolation-filters="sRGB">
<feFlood flood-opacity="0" result="BackgroundImageFix"/>
<feColorMatrix in="SourceAlpha" type="matrix" values="0 0 0 0 0 0 0 0 0 0 0 0 0 0 0 0 0 0 127 0" result="hardAlpha"/>
<feOffset dy="1"/>
<feGaussianBlur stdDeviation="1"/>
<feComposite in2="hardAlpha" operator="out"/>
<feColorMatrix type="matrix" values="0 0 0 0 0 0 0 0 0 0 0 0 0 0 0 0 0 0 0.05 0"/>
<feBlend mode="normal" in2="BackgroundImageFix" result="effect1_dropShadow_6_182"/>
<feBlend mode="normal" in="SourceGraphic" in2="effect1_dropShadow_6_182" result="shape"/>
</filter>
<linearGradient id="paint0_linear_6_182" x1="24" y1="9" x2="24" y2="29" gradientUnits="userSpaceOnUse">
<stop stop-color="white"/>
<stop offset="1" stop-color="#E2E8F0"/>
</linearGradient>
</defs>
</svg>
