<svg width="48" height="49" viewBox="0 0 48 49" fill="none" xmlns="http://www.w3.org/2000/svg">
<path d="M12.4167 39.3333V37.6042L11.0625 38.9375L10.4792 38.3542L12.4167 36.4167V35.5833H11.5834L9.64585 37.5208L9.06252 36.9375L10.3959 35.5833H8.66669V34.75H10.3959L9.06252 33.3958L9.64585 32.8125L11.5834 34.75H12.4167V33.9167L10.4792 31.9792L11.0625 31.3958L12.4167 32.7292V31H13.25V32.7292L14.6042 31.3958L15.1875 31.9792L13.25 33.9167V34.75H14.0834L16.0209 32.8125L16.6042 33.3958L15.2709 34.75H17V35.5833H15.2709L16.6042 36.9375L16.0209 37.5208L14.0834 35.5833H13.25V36.4167L15.1875 38.3542L14.6042 38.9375L13.25 37.6042V39.3333H12.4167V39.3333" fill="#93C5FD"/>
<path d="M23.5 41V38.925L21.875 40.525L21.175 39.825L23.5 37.5V36.5H22.5L20.175 38.825L19.475 38.125L21.075 36.5H19V35.5H21.075L19.475 33.875L20.175 33.175L22.5 35.5H23.5V34.5L21.175 32.175L21.875 31.475L23.5 33.075V31H24.5V33.075L26.125 31.475L26.825 32.175L24.5 34.5V35.5H25.5L27.825 33.175L28.525 33.875L26.925 35.5H29V36.5H26.925L28.525 38.125L27.825 38.825L25.5 36.5H24.5V37.5L26.825 39.825L26.125 40.525L24.5 38.925V41H23.5V41" fill="#93C5FD"/>
<path d="M34.75 39.3333V37.6042L33.3958 38.9375L32.8125 38.3542L34.75 36.4167V35.5833H33.9167L31.9792 37.5208L31.3958 36.9375L32.7292 35.5833H31V34.75H32.7292L31.3958 33.3958L31.9792 32.8125L33.9167 34.75H34.75V33.9167L32.8125 31.9792L33.3958 31.3958L34.75 32.7292V31H35.5833V32.7292L36.9375 31.3958L37.5208 31.9792L35.5833 33.9167V34.75H36.4167L38.3542 32.8125L38.9375 33.3958L37.6042 34.75H39.3333V35.5833H37.6042L38.9375 36.9375L38.3542 37.5208L36.4167 35.5833H35.5833V36.4167L37.5208 38.3542L36.9375 38.9375L35.5833 37.6042V39.3333H34.75V39.3333" fill="#93C5FD"/>
<g filter="url(#filter0_d_6_200)">
<rect x="6" y="9" width="36" height="20" rx="10" fill="url(#paint0_linear_6_200)" shape-rendering="crispEdges"/>
<rect x="14" y="1" width="16" height="16" rx="8" fill="#F3F4F6"/>
</g>
<defs>
<filter id="filter0_d_6_200" x="4" y="0" width="40" height="32" filterUnits="userSpaceOnUse" color-interpolation-filters="sRGB">
<feFlood flood-opacity="0" result="BackgroundImageFix"/>
<feColorMatrix in="SourceAlpha" type="matrix" values="0 0 0 0 0 0 0 0 0 0 0 0 0 0 0 0 0 0 127 0" result="hardAlpha"/>
<feOffset dy="1"/>
<feGaussianBlur stdDeviation="1"/>
<feComposite in2="hardAlpha" operator="out"/>
<feColorMatrix type="matrix" values="0 0 0 0 0 0 0 0 0 0 0 0 0 0 0 0 0 0 0.05 0"/>
<feBlend mode="normal" in2="BackgroundImageFix" result="effect1_dropShadow_6_200"/>
<feBlend mode="normal" in="SourceGraphic" in2="effect1_dropShadow_6_200" result="shape"/>
</filter>
<linearGradient id="paint0_linear_6_200" x1="24" y1="9" x2="24" y2="29" gradientUnits="userSpaceOnUse">
<stop stop-color="white"/>
<stop offset="1" stop-color="#E2E8F0"/>
</linearGradient>
</defs>
</svg>
