<svg width="48" height="48" viewBox="0 0 48 48" fill="none" xmlns="http://www.w3.org/2000/svg">
<path d="M17.4167 40.1666V38.4374L16.0625 39.7708L15.4792 39.1874L17.4167 37.2499V36.4166H16.5834L14.6459 38.3541L14.0625 37.7708L15.3959 36.4166H13.6667V35.5833H15.3959L14.0625 34.2291L14.6459 33.6458L16.5834 35.5833H17.4167V34.7499L15.4792 32.8124L16.0625 32.2291L17.4167 33.5624V31.8333H18.25V33.5624L19.6042 32.2291L20.1875 32.8124L18.25 34.7499V35.5833H19.0834L21.0209 33.6458L21.6042 34.2291L20.2709 35.5833H22V36.4166H20.2709L21.6042 37.7708L21.0209 38.3541L19.0834 36.4166H18.25V37.2499L20.1875 39.1874L19.6042 39.7708L18.25 38.4374V40.1666H17.4167V40.1666" fill="#BFDBFE"/>
<path d="M29.75 40.1666V38.4374L28.3958 39.7708L27.8125 39.1874L29.75 37.2499V36.4166H28.9167L26.9792 38.3541L26.3958 37.7708L27.7292 36.4166H26V35.5833H27.7292L26.3958 34.2291L26.9792 33.6458L28.9167 35.5833H29.75V34.7499L27.8125 32.8124L28.3958 32.2291L29.75 33.5624V31.8333H30.5833V33.5624L31.9375 32.2291L32.5208 32.8124L30.5833 34.7499V35.5833H31.4167L33.3542 33.6458L33.9375 34.2291L32.6042 35.5833H34.3333V36.4166H32.6042L33.9375 37.7708L33.3542 38.3541L31.4167 36.4166H30.5833V37.2499L32.5208 39.1874L31.9375 39.7708L30.5833 38.4374V40.1666H29.75V40.1666" fill="#BFDBFE"/>
<g filter="url(#filter0_d_6_169)">
<rect x="6" y="7.83331" width="36" height="20" rx="10" fill="url(#paint0_linear_6_169)"/>
</g>
<defs>
<filter id="filter0_d_6_169" x="4" y="6.83331" width="40" height="24" filterUnits="userSpaceOnUse" color-interpolation-filters="sRGB">
<feFlood flood-opacity="0" result="BackgroundImageFix"/>
<feColorMatrix in="SourceAlpha" type="matrix" values="0 0 0 0 0 0 0 0 0 0 0 0 0 0 0 0 0 0 127 0" result="hardAlpha"/>
<feOffset dy="1"/>
<feGaussianBlur stdDeviation="1"/>
<feComposite in2="hardAlpha" operator="out"/>
<feColorMatrix type="matrix" values="0 0 0 0 0 0 0 0 0 0 0 0 0 0 0 0 0 0 0.05 0"/>
<feBlend mode="normal" in2="BackgroundImageFix" result="effect1_dropShadow_6_169"/>
<feBlend mode="normal" in="SourceGraphic" in2="effect1_dropShadow_6_169" result="shape"/>
</filter>
<linearGradient id="paint0_linear_6_169" x1="24" y1="7.83331" x2="24" y2="27.8333" gradientUnits="userSpaceOnUse">
<stop stop-color="white"/>
<stop offset="1" stop-color="#E2E8F0"/>
</linearGradient>
</defs>
</svg>
