<svg width="50" height="48" viewBox="0 0 50 48" fill="none" xmlns="http://www.w3.org/2000/svg">
<rect x="14" y="8" width="32" height="20" rx="10" fill="#D1D5DB"/>
<rect x="26" y="4" width="16" height="16" rx="8" fill="#D1D5DB"/>
<g filter="url(#filter0_d_6_54)">
<rect x="2" y="16" width="40" height="24" rx="12" fill="url(#paint0_linear_6_54)" shape-rendering="crispEdges"/>
<rect x="2.5" y="16.5" width="39" height="23" rx="11.5" stroke="white" shape-rendering="crispEdges"/>
<mask id="path-5-inside-1_6_54" fill="white">
<path d="M7 19C7 13.4772 11.4772 9 17 9V9C22.5228 9 27 13.4772 27 19V19C27 24.5228 22.5228 29 17 29V29C11.4772 29 7 24.5228 7 19V19Z"/>
</mask>
<path d="M6 8H27V10H8L6 8ZM8 10M27 29H7H27M6 29V8L8 10V29H6ZM8 29M27 9V29V9" fill="white" mask="url(#path-5-inside-1_6_54)"/>
</g>
<defs>
<filter id="filter0_d_6_54" x="0" y="8" width="44" height="35" filterUnits="userSpaceOnUse" color-interpolation-filters="sRGB">
<feFlood flood-opacity="0" result="BackgroundImageFix"/>
<feColorMatrix in="SourceAlpha" type="matrix" values="0 0 0 0 0 0 0 0 0 0 0 0 0 0 0 0 0 0 127 0" result="hardAlpha"/>
<feOffset dy="1"/>
<feGaussianBlur stdDeviation="1"/>
<feComposite in2="hardAlpha" operator="out"/>
<feColorMatrix type="matrix" values="0 0 0 0 0 0 0 0 0 0 0 0 0 0 0 0 0 0 0.05 0"/>
<feBlend mode="normal" in2="BackgroundImageFix" result="effect1_dropShadow_6_54"/>
<feBlend mode="normal" in="SourceGraphic" in2="effect1_dropShadow_6_54" result="shape"/>
</filter>
<linearGradient id="paint0_linear_6_54" x1="22" y1="16" x2="22" y2="40" gradientUnits="userSpaceOnUse">
<stop stop-color="white"/>
<stop offset="1" stop-color="#E2E8F0"/>
</linearGradient>
</defs>
</svg>
