<svg width="59" height="59" viewBox="0 0 59 59" fill="none" xmlns="http://www.w3.org/2000/svg">
<g filter="url(#filter0_d_6_216)">
<rect x="15" y="15" width="16" height="16" rx="8" fill="url(#paint0_radial_6_216)"/>
</g>
<path d="M41.5 59V56.925L39.875 58.525L39.175 57.825L41.5 55.5V54.5H40.5L38.175 56.825L37.475 56.125L39.075 54.5H37V53.5H39.075L37.475 51.875L38.175 51.175L40.5 53.5H41.5V52.5L39.175 50.175L39.875 49.475L41.5 51.075V49H42.5V51.075L44.125 49.475L44.825 50.175L42.5 52.5V53.5H43.5L45.825 51.175L46.525 51.875L44.925 53.5H47V54.5H44.925L46.525 56.125L45.825 56.825L43.5 54.5H42.5V55.5L44.825 57.825L44.125 58.525L42.5 56.925V59H41.5V59" fill="#BFDBFE"/>
<g filter="url(#filter1_d_6_216)">
<rect x="21" y="25" width="36" height="20" rx="10" fill="url(#paint1_linear_6_216)"/>
</g>
<defs>
<filter id="filter0_d_6_216" x="0" y="0" width="46" height="46" filterUnits="userSpaceOnUse" color-interpolation-filters="sRGB">
<feFlood flood-opacity="0" result="BackgroundImageFix"/>
<feColorMatrix in="SourceAlpha" type="matrix" values="0 0 0 0 0 0 0 0 0 0 0 0 0 0 0 0 0 0 127 0" result="hardAlpha"/>
<feOffset/>
<feGaussianBlur stdDeviation="7.5"/>
<feComposite in2="hardAlpha" operator="out"/>
<feColorMatrix type="matrix" values="0 0 0 0 0.984314 0 0 0 0 0.74902 0 0 0 0 0.141176 0 0 0 0.4 0"/>
<feBlend mode="normal" in2="BackgroundImageFix" result="effect1_dropShadow_6_216"/>
<feBlend mode="normal" in="SourceGraphic" in2="effect1_dropShadow_6_216" result="shape"/>
</filter>
<filter id="filter1_d_6_216" x="19" y="24" width="40" height="24" filterUnits="userSpaceOnUse" color-interpolation-filters="sRGB">
<feFlood flood-opacity="0" result="BackgroundImageFix"/>
<feColorMatrix in="SourceAlpha" type="matrix" values="0 0 0 0 0 0 0 0 0 0 0 0 0 0 0 0 0 0 127 0" result="hardAlpha"/>
<feOffset dy="1"/>
<feGaussianBlur stdDeviation="1"/>
<feComposite in2="hardAlpha" operator="out"/>
<feColorMatrix type="matrix" values="0 0 0 0 0 0 0 0 0 0 0 0 0 0 0 0 0 0 0.05 0"/>
<feBlend mode="normal" in2="BackgroundImageFix" result="effect1_dropShadow_6_216"/>
<feBlend mode="normal" in="SourceGraphic" in2="effect1_dropShadow_6_216" result="shape"/>
</filter>
<radialGradient id="paint0_radial_6_216" cx="0" cy="0" r="1" gradientUnits="userSpaceOnUse" gradientTransform="translate(23 23) scale(11.3137)">
<stop offset="0.4" stop-color="#FCD34D"/>
<stop offset="1" stop-color="#F59E0B"/>
</radialGradient>
<linearGradient id="paint1_linear_6_216" x1="39" y1="25" x2="39" y2="45" gradientUnits="userSpaceOnUse">
<stop stop-color="white"/>
<stop offset="1" stop-color="#E2E8F0"/>
</linearGradient>
</defs>
</svg>
