<svg width="60" height="60" viewBox="0 0 60 60" fill="none" xmlns="http://www.w3.org/2000/svg">
<g filter="url(#filter0_d_6_242)">
<rect x="4" y="12" width="40" height="24" rx="12" fill="url(#paint0_linear_6_242)" shape-rendering="crispEdges"/>
<rect x="12" y="4" width="20" height="20" rx="10" fill="#9CA3AF"/>
</g>
<g filter="url(#filter1_d_6_242)">
<path d="M44.125 48.8334L48.4375 43.6667H45.1042L45.7084 38.9375L41.8542 44.5H44.75L44.125 48.8334V48.8334M42 52L42.8334 46.1667H38.6667L46.1667 35.3334H47.8334L47 42H52L43.6667 52H42V52M45.1459 43.875V43.875V43.875V43.875V43.875V43.875V43.875V43.875" fill="#FACC15"/>
</g>
<defs>
<filter id="filter0_d_6_242" x="2" y="3" width="44" height="36" filterUnits="userSpaceOnUse" color-interpolation-filters="sRGB">
<feFlood flood-opacity="0" result="BackgroundImageFix"/>
<feColorMatrix in="SourceAlpha" type="matrix" values="0 0 0 0 0 0 0 0 0 0 0 0 0 0 0 0 0 0 127 0" result="hardAlpha"/>
<feOffset dy="1"/>
<feGaussianBlur stdDeviation="1"/>
<feComposite in2="hardAlpha" operator="out"/>
<feColorMatrix type="matrix" values="0 0 0 0 0 0 0 0 0 0 0 0 0 0 0 0 0 0 0.05 0"/>
<feBlend mode="normal" in2="BackgroundImageFix" result="effect1_dropShadow_6_242"/>
<feBlend mode="normal" in="SourceGraphic" in2="effect1_dropShadow_6_242" result="shape"/>
</filter>
<filter id="filter1_d_6_242" x="30.6667" y="27.3334" width="29.3333" height="32.6666" filterUnits="userSpaceOnUse" color-interpolation-filters="sRGB">
<feFlood flood-opacity="0" result="BackgroundImageFix"/>
<feColorMatrix in="SourceAlpha" type="matrix" values="0 0 0 0 0 0 0 0 0 0 0 0 0 0 0 0 0 0 127 0" result="hardAlpha"/>
<feOffset/>
<feGaussianBlur stdDeviation="4"/>
<feComposite in2="hardAlpha" operator="out"/>
<feColorMatrix type="matrix" values="0 0 0 0 0.980392 0 0 0 0 0.8 0 0 0 0 0.0823529 0 0 0 0.6 0"/>
<feBlend mode="normal" in2="BackgroundImageFix" result="effect1_dropShadow_6_242"/>
<feBlend mode="normal" in="SourceGraphic" in2="effect1_dropShadow_6_242" result="shape"/>
</filter>
<linearGradient id="paint0_linear_6_242" x1="24" y1="12" x2="24" y2="36" gradientUnits="userSpaceOnUse">
<stop stop-color="white"/>
<stop offset="1" stop-color="#E2E8F0"/>
</linearGradient>
</defs>
</svg>
